# xmcd
#
# Track frame offsets:
#	150
#	7036
#	24705
#	39601
#	63696
#	87720
#
# Disc length: 1495 seconds
#
# Revision: 2
# Processed by: cddbd v1.5.2PL0 Copyright (c) Steve Scherf et al.
# Submitted via: Jack! The Knife
#
DISCID=5105d506
DTITLE=Marlene Kuntz - Fingendo La Poesia
DYEAR=2004
DGENRE=Rock
TTITLE0=Prima
TTITLE1=Fingendo La Poesia
TTITLE2=Non Gioco Più
TTITLE3=Alle Prese Con Una Verde Milonga
TTITLE4=Il Vortice
TTITLE5=Poi
EXTD=
EXTT0=
EXTT1=Cristiano Godano
EXTT2=G. Ferrio
EXTT3=Paolo Conte
EXTT4=Cristiano Godano
EXTT5=
PLAYORDER=
